<?xml version="1.0" encoding="UTF-8"?>
<svg id="logo" xmlns="http://www.w3.org/2000/svg" viewBox="0 0 281.61 61.26" width="281.61" height="61.26">
  <defs>
    <style>
      .cls-1, .cls-2, .cls-3 {
        fill-rule: evenodd;
      }

      .cls-1, .cls-4 {
        fill: #faf8f5;
      }

      .cls-5, .cls-3 {
        fill: #ea580c;
      }

      .cls-2, .cls-6 {
        fill: #fb923c;
      }
    </style>
  </defs>
  <g id="Chatterlyn">
    <path class="cls-2" d="M107.81,12.01c.03-1.15-.07-2.29-.3-3.41s-.63-2.12-1.21-3.01c-.58-.89-1.33-1.6-2.27-2.15-.94-.54-2.08-.81-3.43-.81-2.21,0-4.23.5-6.07,1.51-1.84,1-3.52,2.33-5.04,3.97-1.51,1.65-2.86,3.55-4.02,5.7-1.17,2.16-2.16,4.39-2.99,6.71-.82,2.32-1.46,4.63-1.9,6.94-.44,2.3-.7,4.44-.77,6.42-.07,2.11.14,4.09.62,5.95s1.18,3.48,2.12,4.86,2.07,2.47,3.41,3.26c1.33.79,2.82,1.18,4.47,1.18,1.32,0,2.57-.28,3.75-.84s2.28-1.29,3.28-2.2,1.91-1.92,2.72-3.04c.81-1.12,1.49-2.24,2.05-3.36.2-.43.26-.8.2-1.11-.07-.31-.2-.54-.39-.69-.2-.15-.43-.17-.69-.07s-.51.36-.74.79c-.33.59-.8,1.28-1.41,2.05s-1.33,1.52-2.17,2.25c-.84.72-1.77,1.33-2.79,1.83-1.02.49-2.11.74-3.26.74-.72,0-1.45-.18-2.17-.54s-1.37-.96-1.95-1.78c-.58-.82-1.02-1.88-1.33-3.16-.31-1.28-.44-2.85-.37-4.69.16-4.08.75-7.95,1.75-11.6s2.24-6.85,3.7-9.6,3.05-4.93,4.76-6.54c1.71-1.61,3.34-2.42,4.89-2.42.79,0,1.5.31,2.12.94s.9,1.61.84,2.96c-.1,1.38-.3,2.63-.59,3.75-.26.99-.65,1.93-1.16,2.84s-1.21,1.54-2.1,1.9c.3.76.62,1.33.96,1.73.35.39.68.69,1.01.89.36.23.74.36,1.14.39.82,0,1.56-.24,2.2-.72s1.18-1.12,1.63-1.93c.44-.81.79-1.72,1.04-2.74s.4-2.07.47-3.16h-.01ZM234.2,8.21c.07-.53.11-1.04.12-1.53.02-.49-.07-.82-.27-.99-.07-.16-.21-.27-.44-.32s-.48-.07-.74-.07c-.3,0-.63.03-.99.1-.36.07-.72.15-1.09.25-.3.07-.6.15-.91.25s-.6.23-.86.4c.1.46.15.97.15,1.53s-.03,1.1-.1,1.63c-.07.59-.15,1.2-.25,1.83-.2.89-.56,2.49-1.09,4.79-.46,1.94-1.13,4.76-2,8.44-.33,1.38-.69,2.92-1.1,4.64-.12.16-.24.34-.38.55-.41.59-.91,1.26-1.51,2-.59.74-1.23,1.5-1.93,2.27-.69.77-1.39,1.48-2.1,2.12s-1.4,1.17-2.07,1.58c-.68.41-1.29.62-1.85.62-.76,0-1.22-.13-1.38-.39-.17-.26-.28-.61-.35-1.04-.07-.66.13-1.4.59-2.22.46-.82.92-1.56,1.38-2.22.76-1.05,1.4-2.02,1.93-2.91s.74-1.74.64-2.57c-.03-.39-.11-.83-.22-1.31-.12-.48-.29-.92-.52-1.33-.23-.41-.53-.76-.89-1.04s-.82-.42-1.38-.42c-.46,0-.8.03-1.01.1-.21.07-.58.1-1.11.1-.36,0-.63-.04-.79-.12-.17-.08-.3-.16-.4-.22.36-.53.61-1.12.74-1.78s.16-1.2.1-1.63c-.07-.62-.29-1.23-.67-1.83-.38-.59-1.03-.89-1.95-.89-.49,0-1,.23-1.53.69-.53.46-1,1.01-1.43,1.65s-.77,1.31-1.04,2c-.26.69-.36,1.25-.3,1.68.07.49.16.81.3.96.13.15.38.39.74.72-.2.36-.51.95-.94,1.75-.43.81-.9,1.72-1.41,2.74-.3.59-.6,1.21-.92,1.85-.21.23-.43.47-.66.72-1,1.09-2.09,2.13-3.26,3.14-1.17,1-2.36,1.86-3.58,2.57s-2.39,1.06-3.51,1.06c-.53,0-1.05-.07-1.56-.22s-.96-.39-1.36-.74c-.4-.35-.72-.8-.99-1.36-.26-.56-.41-1.25-.44-2.07.49-.36,1.07-.77,1.73-1.21.66-.44,1.35-.91,2.07-1.41.66-.46,1.36-.97,2.1-1.53.74-.56,1.44-1.18,2.1-1.88.66-.69,1.23-1.46,1.7-2.32.48-.86.77-1.79.86-2.81.07-.92-.18-1.69-.74-2.32-.56-.62-1.46-.94-2.72-.94s-2.63.41-3.93,1.23c-1.3.82-2.47,1.86-3.51,3.11s-1.91,2.63-2.62,4.12c-.59,1.24-.96,2.43-1.15,3.57-.58.68-1.19,1.38-1.86,2.08-.77.82-1.54,1.58-2.3,2.27-.76.69-1.49,1.24-2.2,1.65-.71.41-1.31.58-1.8.52-.63-.03-1.15-.23-1.58-.59-.36-.33-.67-.86-.91-1.6-.25-.74-.27-1.82-.07-3.23.86-1.97,1.63-3.83,2.32-5.58.69-1.74,1.28-3.29,1.78-4.64.56-1.55,1.05-2.98,1.48-4.3.2-.56.35-1.09.47-1.6.11-.51.24-1.03.37-1.56.26,0,.52,0,.77-.02s.47-.02.67-.02c1.05,0,1.97.03,2.76.1.79.07,1.47.13,2.05.2s1.07.15,1.48.25c.41.1.78.17,1.11.2.33.07.62,0,.89-.2.26-.2.45-.44.57-.72.11-.28.16-.55.15-.81-.02-.26-.14-.43-.37-.49-.23-.07-.58-.19-1.04-.37-.46-.18-1.07-.36-1.83-.54s-1.67-.35-2.74-.49c-1.07-.15-2.3-.22-3.68-.22.33-1.68.51-3.06.54-4.15.03-1.09-.03-1.76-.2-2.02-.17-.2-.43-.32-.79-.37-.36-.05-.74-.05-1.14,0-.39.05-.77.13-1.11.25-.35.12-.57.26-.67.42-.33.46-.7,1.28-1.11,2.44-.41,1.17-.83,2.54-1.26,4.12-.56.1-1.13.18-1.7.25-.14.02-.28.03-.41.04-.3-.09-.63-.18-.99-.26-.76-.18-1.67-.35-2.74-.49-1.07-.15-2.3-.22-3.68-.22.33-1.68.51-3.06.54-4.15.03-1.09-.03-1.76-.2-2.02-.17-.2-.43-.32-.79-.37-.36-.05-.74-.05-1.14,0s-.77.13-1.11.25c-.35.12-.57.26-.67.42-.33.46-.7,1.28-1.11,2.44-.41,1.17-.83,2.54-1.26,4.12-.56.1-1.13.18-1.7.25-.58.07-1.18.12-1.8.15-.86.03-1.65.02-2.37-.02s-1.4-.11-2.02-.17c-.2,0-.42.09-.67.27s-.45.39-.62.64c-.16.25-.26.49-.3.74-.03.25.08.44.35.57.46.23,1.16.47,2.1.72s1.93.37,2.99.37c.46,0,.97-.03,1.53-.1.56-.07,1.12-.13,1.68-.2-.46,1.91-.9,3.89-1.31,5.95s-.78,3.98-1.11,5.78c-.07.37-.13.74-.2,1.09-.2.26-.49.63-.86,1.1-.44.56-.95,1.2-1.51,1.93-.56.72-1.16,1.47-1.8,2.25-.64.77-1.26,1.48-1.85,2.12s-1.15,1.17-1.68,1.58c-.53.41-.96.62-1.28.62-.39,0-.7-.09-.91-.27s-.37-.42-.47-.72c-.1-.3-.16-.62-.17-.96-.02-.35,0-.67.02-.96.1-.49.18-.9.25-1.23.07-.33.12-.62.17-.86.05-.25.1-.49.15-.74.05-.25.11-.52.17-.81.33-1.51.59-2.75.79-3.7s.35-1.71.44-2.27c.1-.56.15-.95.15-1.16s-.02-.35-.05-.42c-.07-.03-.2-.05-.39-.05-.17,0-.4.02-.72.05-.31.03-.7.1-1.16.2.69-1.05.96-1.9.81-2.54s-.45-1.13-.91-1.46c-.56-.36-1.28-.62-2.17-.79-.76-.07-1.71.2-2.86.79s-2.32,1.47-3.51,2.64c-1.18,1.17-2.28,2.58-3.28,4.22-.85,1.39-1.5,2.9-1.96,4.55l-.24.27c-.46.51-.94,1.01-1.43,1.51-.49.49-.94.91-1.33,1.23-1.74,1.42-3.05,2.26-3.93,2.54-.87.28-1.46.16-1.75-.37-.23-.39-.26-.86-.1-1.38.16-.53.39-1.17.69-1.93.43-1.09.8-2.04,1.11-2.86s.57-1.57.77-2.25c.2-.67.35-1.29.47-1.85.11-.56.17-1.1.17-1.63.03-.86-.03-1.57-.2-2.15s-.4-1.04-.72-1.38c-.31-.35-.68-.59-1.09-.74-.41-.15-.85-.22-1.31-.22-.89,0-1.73.19-2.52.57-.79.38-1.54.86-2.25,1.43-.71.58-1.36,1.21-1.95,1.9s-1.1,1.37-1.53,2.02c.72-2.86,1.51-5.55,2.37-8.07.86-2.52,1.63-5.11,2.32-7.78.16-.72.31-1.4.44-2.02.07-.53.11-1.04.12-1.53.02-.49-.07-.82-.27-.99-.07-.16-.21-.27-.44-.32s-.48-.07-.74-.07c-.3,0-.63.03-.99.1-.36.07-.72.15-1.09.25-.3.07-.6.15-.91.25-.31.1-.6.23-.86.4.1.46.15.97.15,1.53s-.03,1.1-.1,1.63c-.07.59-.15,1.2-.25,1.83-.2.89-.56,2.49-1.09,4.79-.46,1.94-1.12,4.76-1.97,8.44-.86,3.69-2.02,8.57-3.51,14.66.1.36.25.65.44.86.2.21.39.39.59.52.23.13.48.23.74.3.23.03.46.05.69.05.2,0,.41-.03.64-.1.23-.07.44-.18.64-.35.23-.95.47-2.05.72-3.28s.49-2.38.72-3.43c.26-1.25.53-2.52.79-3.8.43-.69.92-1.4,1.48-2.12.56-.72,1.14-1.37,1.75-1.95s1.22-1.04,1.83-1.41c.61-.36,1.18-.54,1.7-.54.76,0,1.18.37,1.28,1.11s.02,1.64-.22,2.69c-.25,1.05-.58,2.15-.99,3.28-.41,1.14-.73,2.12-.96,2.94-.36,1.32-.55,2.41-.57,3.28s.27,1.69.86,2.44c.66.86,1.32,1.28,2,1.28s1.51-.28,2.49-.84c.89-.49,1.81-1.12,2.76-1.88.95-.76,1.9-1.56,2.84-2.42.36-.33.71-.66,1.05-1-.03.47-.03.91,0,1.32.1,1.07.33,1.94.69,2.62.36.67.81,1.17,1.33,1.48.53.31,1.02.47,1.48.47.99-.07,1.97-.28,2.96-.64.86-.33,1.76-.85,2.72-1.56.95-.71,1.83-1.72,2.62-3.04-.03.89.02,1.63.17,2.22s.3,1.07.47,1.43c.2.43.44.76.74.99.3.2.64.34,1.04.42.4.08.81.11,1.26.07.44-.03.88-.12,1.31-.25s.81-.3,1.14-.49c.49-.33,1.11-.9,1.85-1.7.74-.81,1.5-1.69,2.27-2.67.77-.97,1.52-1.94,2.25-2.91.11-.14.21-.28.31-.42-.18,1.25-.28,2.12-.31,2.62-.07.63-.02,1.31.15,2.05.16.74.45,1.42.86,2.05s.98,1.15,1.7,1.58,1.63.64,2.72.64c.76,0,1.69-.41,2.81-1.23s2.27-1.87,3.46-3.14c1.18-1.27,2.31-2.62,3.38-4.07.18-.24.35-.48.52-.72h0c-.2,1.37-.31,2.31-.35,2.84-.07.63-.02,1.31.15,2.05.16.74.45,1.42.86,2.05s.98,1.15,1.7,1.58,1.63.64,2.72.64c.76,0,1.69-.41,2.81-1.23s2.27-1.87,3.46-3.14c.63-.67,1.24-1.37,1.84-2.09.07.57.19,1.09.36,1.58.41,1.15.96,2.09,1.65,2.81.69.72,1.46,1.26,2.3,1.6.84.35,1.62.52,2.35.52,1.38,0,2.81-.33,4.27-.99s2.9-1.52,4.3-2.59c.5-.38.99-.79,1.48-1.21-.23.47-.45.9-.64,1.28-.35.69-.57,1.14-.67,1.33-.2.39-.26.72-.2.99.07.26.21.44.42.52.21.08.46.07.74-.05s.54-.35.77-.72c.1-.13.35-.53.77-1.21.41-.67.91-1.5,1.51-2.47.59-.97,1.23-2.02,1.9-3.14.67-1.12,1.32-2.19,1.93-3.21.61-1.02,1.14-1.91,1.6-2.67s.76-1.25.89-1.48c.26.07.54.17.84.3s.66.2,1.09.2c.3,0,.52,0,.67-.02s.26-.02.35-.02.16,0,.25-.02c.08-.02.22-.02.42-.02.3,0,.51.12.64.35s.2.49.2.79c0,.46-.17,1.03-.52,1.7-.35.68-.8,1.49-1.36,2.44-.23.46-.49.93-.77,1.41-.28.48-.54.96-.79,1.43-.25.48-.46.94-.64,1.38-.18.44-.29.86-.32,1.26-.03.49.02,1.03.17,1.6.15.58.4,1.1.74,1.58.35.48.8.88,1.36,1.21.56.33,1.27.49,2.12.49s1.69-.25,2.59-.74,1.81-1.13,2.72-1.9,1.77-1.63,2.59-2.57c.71-.81,1.37-1.61,1.97-2.38-.38,1.62-.79,3.34-1.23,5.17.1.36.25.65.44.86.2.21.39.39.59.52.23.13.46.23.69.3.26.03.51.05.74.05.2,0,.41-.03.64-.1s.43-.18.59-.35c1.51-5.96,2.77-10.89,3.78-14.81,1-3.92,1.8-7.01,2.39-9.28.69-2.67,1.23-4.71,1.63-6.12.16-.72.31-1.4.44-2.02l.09-.1ZM188.88,27.1c.46-1.07.95-1.97,1.48-2.72.53-.74,1.06-1.31,1.6-1.7.54-.4,1.01-.59,1.41-.59.36,0,.64.14.84.42s.26.73.2,1.36c-.07.59-.38,1.3-.94,2.12-.56.82-1.55,1.78-2.96,2.86-.46.36-.92.7-1.38,1.01s-.89.62-1.28.91c.23-1.38.58-2.61,1.04-3.68h0ZM143.53,25.37c-.08.54-.21,1.23-.37,2.05-.17.82-.36,1.68-.59,2.57s-.43,1.66-.59,2.32c-.03.17-.17.43-.42.79s-.56.76-.94,1.18c-.38.43-.81.84-1.28,1.23-.48.39-.96.72-1.43.96-.48.25-.95.38-1.41.39-.46.02-.87-.16-1.23-.52-.2-.2-.33-.62-.39-1.26-.07-.64-.04-1.39.07-2.25s.32-1.77.62-2.74c.3-.97.69-1.88,1.18-2.74,1.18-2.07,2.23-3.5,3.14-4.27.9-.77,1.54-1.01,1.9-.72.1.13.16.31.2.54.03.2.02.47-.02.81-.05.35-.21.78-.47,1.31.26-.07.53-.11.79-.15.26-.03.48-.08.64-.15.2-.07.38-.11.54-.15.13-.03.16.22.07.77v.03ZM172.17,21.42c-.41,2.06-.78,3.98-1.11,5.78-.05.3-.11.58-.16.87-.16.21-.36.47-.58.76-.49.64-1.07,1.36-1.73,2.15-.66.79-1.37,1.6-2.15,2.42-.77.82-1.54,1.58-2.3,2.27-.76.69-1.49,1.24-2.2,1.65-.71.41-1.31.58-1.8.52-.63-.03-1.15-.23-1.58-.59-.36-.33-.67-.86-.91-1.6-.25-.74-.27-1.82-.07-3.23.86-1.97,1.63-3.83,2.32-5.58.69-1.74,1.28-3.29,1.78-4.64.56-1.55,1.05-2.98,1.48-4.3.2-.56.35-1.09.47-1.6.11-.51.24-1.03.37-1.56.26,0,.52,0,.77-.02.15-.01.3-.02.43-.02.46.23,1.16.47,2.09.71.94.25,1.93.37,2.99.37.46,0,.97-.03,1.53-.1.56-.07,1.12-.13,1.68-.2-.46,1.91-.9,3.89-1.31,5.95h0ZM250.5,20.55c-.36-.03-.72,0-1.09.1-.33.07-.7.19-1.11.37s-.83.44-1.26.77c.53.56.76,1.18.69,1.88-.07.69-.21,1.65-.44,2.86-.17.63-.42,1.33-.77,2.12s-.74,1.6-1.18,2.42c-.44.82-.93,1.64-1.46,2.44-.53.81-1.06,1.52-1.6,2.15-.54.63-1.08,1.13-1.6,1.51-.53.38-1,.57-1.43.57-.89,0-1.46-.4-1.73-1.21-.26-.81-.25-1.95.05-3.43.03-.33.18-.88.44-1.65.26-.77.56-1.62.89-2.54.33-.92.64-1.82.94-2.69s.51-1.59.64-2.15c.26-1.05.32-1.84.17-2.37-.15-.53-.67-.86-1.56-.99-.36-.03-.72-.03-1.09,0-.33.07-.7.16-1.11.27-.41.12-.85.32-1.31.62.46.59.6,1.33.42,2.22-.18.89-.47,1.96-.86,3.21-.1.26-.24.7-.42,1.31-.18.61-.37,1.29-.57,2.05-.2.76-.38,1.55-.54,2.37-.16.82-.26,1.58-.3,2.27-.1,1.74.22,3.16.96,4.25s2,1.74,3.78,1.97c.72.1,1.42.02,2.1-.22.67-.25,1.31-.6,1.9-1.06.59-.46,1.14-1,1.63-1.63.49-.62.95-1.28,1.38-1.97-.17.66-.32,1.33-.47,2s-.3,1.36-.47,2.05c-.43,1.55-.89,3.29-1.38,5.23-.46,1.68-.98,3.65-1.56,5.92-.58,2.27-1.24,4.79-2,7.55.13.36.3.65.49.86.2.21.38.4.54.57.2.16.41.31.64.44.59.26,1.16.33,1.7.2s.9-.61,1.06-1.43c.62-3.36,1.21-6.34,1.75-8.94s1.01-4.82,1.41-6.67c.46-2.11.89-3.97,1.28-5.58.4-1.97.81-3.75,1.26-5.33s.86-2.99,1.26-4.22.74-2.28,1.04-3.14c.3-.86.49-1.56.59-2.12.16-1.09.14-1.88-.07-2.37s-.77-.77-1.65-.84h.02ZM281.43,27.61c-.15-.1-.35-.08-.62.05-.26.13-.54.41-.84.84-.43.66-1.05,1.52-1.88,2.59-.82,1.07-1.7,2.12-2.62,3.14-.92,1.02-1.84,1.89-2.74,2.62-.91.72-1.65,1.09-2.25,1.09s-.91-.26-.96-.79c-.05-.53.02-1.15.22-1.88.36-1.12.67-2.15.91-3.09.25-.94.45-1.75.62-2.44l.54-2.17c.3-1.05.42-2.02.37-2.91-.05-.89-.21-1.65-.49-2.3-.28-.64-.67-1.14-1.16-1.51-.49-.36-1.05-.54-1.68-.54-.76,0-1.5.16-2.22.47s-1.41.72-2.05,1.21c-.64.49-1.23,1.05-1.78,1.65-.54.61-1.03,1.21-1.46,1.8.2-.56.36-1.1.49-1.63.13-.46.26-.9.39-1.31s.25-.73.35-.96c-.2-.16-.42-.29-.67-.37s-.49-.14-.72-.17c-.26-.03-.53-.05-.79-.05-.3.03-.58.1-.84.2-.26.07-.52.16-.77.27-.25.12-.49.27-.72.47-.33,1.25-.62,2.4-.86,3.46-.25,1.05-.45,1.97-.62,2.76-.2.92-.38,1.76-.54,2.52-.23.96-.48,1.96-.74,3.01-.26,1.05-.52,2.05-.77,2.99-.25.94-.46,1.75-.64,2.44s-.29,1.14-.32,1.33c-.07.3.11.44.52.44s.9-.1,1.46-.3,1.09-.45,1.58-.77c.49-.31.79-.63.89-.96.1-.46.21-.95.35-1.46.13-.51.27-1.1.42-1.78.15-.67.32-1.43.52-2.27.2-.84.44-1.82.74-2.94.56-.82,1.13-1.62,1.7-2.39.58-.77,1.15-1.46,1.73-2.05.58-.59,1.14-1.06,1.7-1.41s1.1-.52,1.63-.52c.43,0,.71.24.84.72s.16,1.09.1,1.83c-.07.74-.21,1.56-.42,2.47-.21.91-.44,1.81-.69,2.72-.25.91-.49,1.74-.72,2.52-.23.77-.4,1.39-.49,1.85-.17.69-.2,1.34-.1,1.95s.31,1.14.64,1.6c.33.46.77.83,1.31,1.11s1.19.42,1.95.42,1.49-.22,2.3-.67c.81-.44,1.62-1.02,2.44-1.73s1.61-1.5,2.37-2.37,1.46-1.74,2.12-2.59c.66-.86,1.23-1.66,1.7-2.42.48-.76.83-1.37,1.06-1.83.26-.53.39-.96.39-1.31s-.07-.57-.22-.67l.04.02Z"/>
  </g>
  <g>
    <g id="burbuja">
      <g id="cara_copia" data-name="cara copia">
        <ellipse class="cls-6" cx="35.06" cy="31.45" rx="30.82" ry="22.66"/>
      </g>
      <g id="cara_copia_2" data-name="cara copia 2">
        <path class="cls-5" d="M51.46,12.26c7.66,4.12,12.63,10.78,12.63,18.29,0,12.52-13.8,22.66-30.82,22.66-6.03,0-11.65-1.27-16.4-3.47,5.1,2.74,11.38,4.37,18.19,4.37,17.02,0,30.82-10.15,30.82-22.66,0-8.08-5.76-15.18-14.42-19.19h0Z"/>
      </g>
    </g>
    <g id="cola">
      <g id="cola1">
        <path class="cls-5" d="M17.33,49.95l-.75,8.34c.03.45.26.86.63,1.12.4.28.92.33,1.38.15,3.25-2.19,6.5-4.37,9.76-6.56l-.27-.1c-3.88-.48-7.51-1.5-10.75-2.94h0Z"/>
      </g>
      <g id="cola1-2">
        <path class="cls-6" d="M14.39,48.14l2.12,10.41c.15.39.45.69.83.82.4.14.84.06,1.18-.19,1.95-2.24,3.98-4.57,6.09-6.99-3.77-.87-7.23-2.26-10.22-4.05h0Z"/>
      </g>
    </g>
    <g id="ojos_boca" data-name="ojos boca">
      <g id="ojos-nuevos">
        <g id="Elipse_1" data-name="Elipse 1">
          <ellipse class="cls-4" cx="23.02" cy="26.17" rx="5.83" ry="4.95" transform="translate(-3.59 48.68) rotate(-88.88)"/>
        </g>
        <g id="Elipse_1_copia" data-name="Elipse 1 copia">
          <ellipse class="cls-4" cx="47.12" cy="26.17" rx="5.83" ry="4.95" transform="translate(20.03 72.77) rotate(-88.88)"/>
        </g>
      </g>
      <g id="boca">
        <path class="cls-1" d="M47.85,35.49c-.53-.6-1.48-.7-2.16-.19-1.78.86-3.65,1.49-5.59,1.9-1.68.35-3.39.53-5.11.52-1.48,0-2.94-.15-4.39-.41-2.16-.39-4.26-1.05-6.26-1.97-.7-.5-1.68-.36-2.2.3-.49.62-.43,1.54.15,2.12,2.22,3.2,5.29,5.59,8.94,6.59,1.22.34,2.48.51,3.76.52,1.5-.02,2.98-.25,4.4-.71,3.51-1.12,6.43-3.52,8.49-6.67.47-.61.44-1.46-.04-2.01h.01Z"/>
      </g>
    </g>
    <g id="tejado">
      <g id="Forma_1" data-name="Forma 1">
        <path class="cls-3" d="M70.01,22.01C59.06,14.87,48.12,7.73,37.17.6c-.61-.37-1.3-.58-2.01-.6-.78-.02-1.54.19-2.2.6l-14.3,9.27.11-.3.11-.45s.07-4.8.07-4.87-.19-.39-.19-.39l-.22-.34-.74-.24h-8.04c-.24.03-.46.12-.63.28-.2.17-.31.41-.34.65v12.1L.04,22.01v.11l.04.19.22.77,1.23.9.82-.07s28.18-13.6,28.41-13.7,4.07-2.16,4.07-2.16l15.19,7.33s17.23,8.29,17.24,8.3.34.19.34.19c0,0,.48-.02.63-.04s.33-.05.41-.07.42-.22.52-.3.52-.53.6-.6.08-.13.11-.15.11-.45.11-.45l.07-.22-.04-.04h0Z"/>
      </g>
      <g id="sombra1">
        <path class="cls-3" d="M69.04,23.39c-.35.21-.74.33-1.15.34-10.94-5.58-21.87-11.17-32.81-16.76-5.48,2.79-10.97,5.57-16.46,8.36-5.49,2.79-10.97,5.57-16.46,8.36-.15,0-.3,0-.45-.04-.79-.17-1.37-.85-1.71-1.64,0,.68.28,1.33.82,1.75.38.3.86.45,1.35.45l32.88-15.42,32.81,15.42c.51.02,1.01-.13,1.42-.45.53-.42.81-1.08.78-1.75-.15.57-.5,1.07-1.01,1.38h0Z"/>
      </g>
      <g id="sombra2">
        <path class="cls-3" d="M18.84,3.42c-.12-.07-.26-.12-.41-.14h-.67c.16.03.31.08.45.17.25.16.4.41.45.69v5.77l.74-.48v-5.21c-.07-.33-.25-.62-.56-.79h0Z"/>
      </g>
    </g>
  </g>
</svg>